<svg width="29" height="29" xmlns="http://www.w3.org/2000/svg"><g fill="none" fill-rule="evenodd"><circle fill="#FFFFFF" cx="14.5" cy="14.5" r="14.5"/><path d="M13,13 L10,13 C9.44771525,13 9,13.4477153 9,14 L9,15 C9,15.5522847 9.44771525,16 10,16 L13,16 L13,19 C13,19.5522847 13.4477153,20 14,20 L15,20 C15.5522847,20 16,19.5522847 16,19 L16,16 L19,16 C19.5522847,16 20,15.5522847 20,15 L20,14 C20,13.4477153 19.5522847,13 19,13 L16,13 L16,10 C16,9.44771525 15.5522847,9 15,9 L14,9 C13.4477153,9 13,9.44771525 13,10 L13,13 Z" fill="#32CEB0"/></g></svg>