<svg width="20" height="20" xmlns="http://www.w3.org/2000/svg"><path d="M5.10824476,0.00170398986 C7.14040537,0.0638991137 9.1612366,0.218364577 11.1707385,0.465100381 C13.1802403,0.711836186 15.1784128,1.05084233 17.1652559,1.48211882 C18.8601438,1.85002171 20.0513519,3.37469851 19.998296,5.10824476 C19.9361009,7.14040537 19.7816354,9.1612366 19.5348996,11.1707385 C19.2881638,13.1802403 18.9491577,15.1784128 18.5178812,17.1652559 C18.1499783,18.8601438 16.6253015,20.0513519 14.8917552,19.998296 C12.8595946,19.9361009 10.8387634,19.7816354 8.82926154,19.5348996 C6.81975967,19.2881638 4.82158718,18.9491577 2.83474405,18.5178812 C1.13985615,18.1499783 -0.0513519169,16.6253015 0.00170398986,14.8917552 C0.0638991137,12.8595946 0.218364577,10.8387634 0.465100381,8.82926154 C0.711836186,6.81975967 1.05084233,4.82158718 1.48211882,2.83474405 C1.85002171,1.13985615 3.37469851,-0.0513519169 5.10824476,0.00170398986 Z M6.44327795,4.21819038 C6.32194525,4.1797721 6.19494903,4.16261578 6.06783676,4.16747084 C5.45527312,4.19086775 4.97755116,4.70925854 5.00081484,5.32532909 C5.06731606,7.08641569 5.20696556,8.8384694 5.41976334,10.5814902 C5.63237339,12.3229733 5.91800272,14.0554394 6.27665133,15.7788886 C6.30296376,15.9053303 6.35089867,16.0262192 6.41832166,16.1361726 C6.7400964,16.6609224 7.42391868,16.8239729 7.9456815,16.5003561 C9.47738464,15.5503363 10.9631835,14.5278825 12.403078,13.4329949 C13.816079,12.358557 15.1189553,11.2644901 16.311707,10.1507943 C16.3982527,10.0699849 16.471421,9.97580256 16.5284517,9.87180032 C16.8244884,9.3319426 16.6293235,8.65294244 16.0925389,8.35521103 C14.5604475,7.50542571 13.000337,6.74003366 11.4122072,6.05903489 C9.82233366,5.37728835 8.16602389,4.76367351 6.44327795,4.21819038 Z" fill="#333333" fill-rule="evenodd"/></svg>