<svg width="39" height="39" xmlns="http://www.w3.org/2000/svg"><defs><linearGradient x1="50%" y1="100%" x2="50%" y2="0%" id="a"><stop stop-color="#F8F8F8" offset="0%"/><stop stop-color="#FFFFFF" offset="100%"/></linearGradient></defs><g fill="none" fill-rule="evenodd"><rect fill="url(#a)" x="7" y="7" width="25" height="25" rx="2.6"/><path d="M18,18 L15,18 C14.4477153,18 14,18.4477153 14,19 L14,20 C14,20.5522847 14.4477153,21 15,21 L18,21 L18,24 C18,24.5522847 18.4477153,25 19,25 L20,25 C20.5522847,25 21,24.5522847 21,24 L21,21 L24,21 C24.5522847,21 25,20.5522847 25,20 L25,19 C25,18.4477153 24.5522847,18 24,18 L21,18 L21,15 C21,14.4477153 20.5522847,14 20,14 L19,14 C18.4477153,14 18,14.4477153 18,15 L18,18 Z" fill="#F66969"/></g></svg>