<svg width="110" height="14" xmlns="http://www.w3.org/2000/svg"><path d="M71.1925703,11.8222222 L70.9368536,11.8222222 C69.4724875,11.8222222 68.8566326,10.7899189 68.8566326,9.77137953 L68.8566326,3.14512373 C68.8566326,2.65382879 69.2549059,2.25555556 69.7462008,2.25555556 L69.7462008,2.25555556 C70.2374957,2.25555556 70.635769,2.65382879 70.635769,3.14512373 L70.635769,9.66126717 C70.635769,10.0879526 70.8136826,10.3081773 71.2653095,10.3081773 L71.2653095,10.3081773 C71.6432287,10.3081773 71.9495927,10.6145413 71.9495927,10.9924605 L71.9495927,11.0651998 C71.9495927,11.4832917 71.6106622,11.8222222 71.1925703,11.8222222 Z M77.6052636,9.04851111 L73.8308471,9.04851111 C73.9537922,9.92654444 74.6791687,10.3346444 75.5029013,10.3346444 C76.4126955,10.3346444 77.0397159,9.61737778 77.5069075,9.61737778 C77.8880375,9.61737778 78.232284,10.0007444 78.232284,10.3841111 C78.232284,11.1508444 76.6585859,11.8928444 75.3430726,11.8928444 C73.3513609,11.8928444 72.0235532,10.4335778 72.0235532,8.46727778 C72.0235532,6.66174444 73.3267719,5.01697778 75.1955384,5.01697778 C77.113483,5.01697778 78.3798182,6.77304444 78.3798182,8.25704444 C78.3798182,8.78881111 78.1462224,9.04851111 77.6052636,9.04851111 Z M73.7939635,7.86131111 L76.6094078,7.86131111 C76.5110517,7.08221111 76.019271,6.50097778 75.1955384,6.50097778 C74.4086894,6.50097778 73.8800251,7.10694444 73.7939635,7.86131111 Z M79.5144706,10.8293111 L79.5144706,6.72357778 L79.1210461,6.72357778 C78.6415599,6.72357778 78.3464915,6.42677778 78.3464915,5.94447778 C78.3464915,5.49927778 78.6784435,5.16537778 79.1210461,5.16537778 L79.5144706,5.16537778 L79.5144706,4.10184444 C79.5144706,3.50824444 79.8833061,3.11251111 80.3996758,3.11251111 C80.9160455,3.11251111 81.284881,3.50824444 81.284881,4.10184444 L81.284881,5.16537778 L81.7889561,5.16537778 C82.2438532,5.16537778 82.6372778,5.37561111 82.6372778,5.94447778 C82.6372778,6.50097778 82.2438532,6.72357778 81.7889561,6.72357778 L81.284881,6.72357778 L81.284881,10.8293111 C81.284881,11.4229111 80.9160455,11.8186444 80.3996758,11.8186444 C79.8833061,11.8186444 79.5144706,11.4229111 79.5144706,10.8293111 Z M83.2875726,10.6561778 L86.0661334,6.72357778 L84.0129491,6.72357778 C83.5703465,6.72357778 83.2138055,6.43914444 83.2138055,5.94447778 C83.2138055,5.44981111 83.5703465,5.16537778 84.0129491,5.16537778 L88.033256,5.16537778 C88.1930847,5.16537778 88.6110983,5.23957778 88.6110983,5.72187778 C88.6110983,5.95684444 88.5619202,6.06814444 88.4266805,6.25364444 L85.6358253,10.1862444 L87.9717834,10.1862444 C88.414386,10.1862444 88.770927,10.4706778 88.770927,10.9653444 C88.770927,11.4600111 88.414386,11.7444444 87.9717834,11.7444444 L83.8531204,11.7444444 C83.4596959,11.7444444 83.1277439,11.5465778 83.1277439,11.1384778 C83.1277439,10.9406111 83.2261001,10.7551111 83.2875726,10.6561778 Z M89.3856528,10.8540444 L89.3856528,3.82977778 C89.3856528,3.21144444 89.7790773,2.86517778 90.3077415,2.86517778 C90.5413373,2.86517778 90.9224674,3.05067778 91.0822961,3.27327778 L94.9796578,8.50437778 L95.0042468,8.50437778 L95.0042468,3.82977778 C95.0042468,3.21144444 95.3976713,2.86517778 95.9263356,2.86517778 C96.4549998,2.86517778 96.8484243,3.21144444 96.8484243,3.82977778 L96.8484243,10.8540444 C96.8484243,11.4723778 96.4549998,11.8186444 95.9263356,11.8186444 C95.6927397,11.8186444 95.3239042,11.6331444 95.151781,11.4105444 L91.2544193,6.24127778 L91.2298303,6.24127778 L91.2298303,10.8540444 C91.2298303,11.4723778 90.8364057,11.8186444 90.3077415,11.8186444 C89.7790773,11.8186444 89.3856528,11.4723778 89.3856528,10.8540444 Z M103.803564,6.25364444 L103.803564,10.6561778 C103.803564,11.1137444 103.803564,11.8186444 102.955242,11.8186444 C102.438872,11.8186444 102.229866,11.5342111 102.10692,11.0642778 C101.652023,11.6084111 101.09877,11.8928444 100.422572,11.8928444 C98.762812,11.8928444 97.4964768,10.4706778 97.4964768,8.46727778 C97.4964768,6.51334444 98.7996955,5.01697778 100.422572,5.01697778 C101.074181,5.01697778 101.713496,5.27667778 102.10692,5.83317778 C102.156098,5.40034444 102.524934,5.09117778 102.955242,5.09117778 C103.803564,5.09117778 103.803564,5.79607778 103.803564,6.25364444 Z M99.2668871,8.46727778 C99.2668871,9.32057778 99.7094897,10.2604444 100.668462,10.2604444 C101.590551,10.2604444 102.033153,9.32057778 102.033153,8.46727778 C102.033153,7.61397778 101.602845,6.64937778 100.668462,6.64937778 C99.6971952,6.64937778 99.2668871,7.61397778 99.2668871,8.46727778 Z M106.1887,11.0766444 L104.405995,6.47624444 C104.319933,6.25364444 104.295344,6.11761111 104.295344,5.95684444 C104.295344,5.38797778 104.737947,5.09117778 105.217433,5.09117778 C105.709214,5.09117778 105.918221,5.44981111 106.004282,5.72187778 L107.135378,9.23401111 L107.159967,9.23401111 L108.291062,5.72187778 C108.377124,5.44981111 108.586131,5.09117778 109.077911,5.09117778 C109.557397,5.09117778 110,5.38797778 110,5.95684444 C110,6.11761111 109.975411,6.25364444 109.889349,6.47624444 L108.106644,11.0766444 C107.934521,11.5342111 107.750103,11.8186444 107.147672,11.8186444 C106.545241,11.8186444 106.360823,11.5342111 106.1887,11.0766444 Z M55.5549094,0.0011927929 C56.9691225,0.0447293796 58.3754514,0.152855204 59.7738959,0.325570267 C61.1723405,0.49828533 62.5629007,0.735589631 63.9455767,1.03748317 C65.1250764,1.29501519 65.9540571,2.36228896 65.9171347,3.57577133 C65.8738521,4.99828376 65.7663571,6.41286562 65.5946497,7.81951692 C65.4229423,9.22616823 65.1870225,10.624889 64.8868903,12.0156792 C64.6308608,13.2021007 63.5698137,14.0359463 62.3634111,13.9988072 C60.949198,13.9552706 59.5428692,13.8471448 58.1444246,13.6744297 C56.74598,13.5017147 55.3554198,13.2644104 53.9727438,12.9625168 C52.7932442,12.7049848 51.9642634,11.637711 52.0011858,10.4242287 C52.0444684,9.00171624 52.1519634,7.58713438 52.3236708,6.18048308 C52.4953782,4.77383177 52.731298,3.37511102 53.0314302,1.98432084 C53.2874598,0.797899308 54.3485068,-0.0359463418 55.5549094,0.0011927929 Z M56.5256916,2.91221326 C57.6915675,3.28142406 58.8124825,3.69674988 59.8884365,4.15819071 C60.9632103,4.6191254 62.019022,5.13718178 63.0558716,5.71235982 C63.419143,5.91387962 63.5512217,6.37346156 63.3508776,6.7388648 C63.3122818,6.80925882 63.2627648,6.87300623 63.2041946,6.92770214 C62.3969946,7.68150826 61.5152673,8.42202852 60.5590127,9.1492629 C59.5845577,9.8903387 58.5790367,10.5823875 57.5424498,11.2254094 C57.1893445,11.4444498 56.7265648,11.3340889 56.5088023,10.9789114 C56.4631735,10.9044894 56.4307333,10.8226656 56.4129263,10.7370834 C56.1702093,9.57056512 55.9769083,8.39794368 55.8330236,7.2192191 C55.6890117,6.03945373 55.5945033,4.85357443 55.5494983,3.6615812 C55.5337545,3.24459324 55.857055,2.89371991 56.2716101,2.87788369 C56.3576339,2.87459753 56.4435791,2.88620981 56.5256916,2.91221326 Z M0.865722656,8.43359375 L0.865722656,11 L0,11 L0,4.6015625 L2.44775391,4.6015625 C3.13037451,4.6015625 3.66064264,4.77734199 4.03857422,5.12890625 C4.4165058,5.48047051 4.60546875,5.9433565 4.60546875,6.51757812 C4.60546875,7.10058885 4.4165058,7.56567209 4.03857422,7.9128418 C3.66064264,8.2600115 3.13037451,8.43359375 2.44775391,8.43359375 L0.865722656,8.43359375 Z M0.865722656,7.75683594 L2.44775391,7.75683594 C2.88134982,7.75683594 3.20507706,7.64038202 3.41894531,7.4074707 C3.63281357,7.17455938 3.73974609,6.88086115 3.73974609,6.52636719 C3.73974609,6.17187323 3.63208115,5.87597775 3.41674805,5.63867188 C3.20141494,5.401366 2.87842012,5.28271484 2.44775391,5.28271484 L0.865722656,5.28271484 L0.865722656,7.75683594 Z M5.34375,8.57861328 C5.34375,7.87548477 5.53417778,7.29614486 5.91503906,6.84057617 C6.29590034,6.38500749 6.81298501,6.15722656 7.46630859,6.15722656 C8.12549158,6.15722656 8.64623832,6.38427507 9.02856445,6.83837891 C9.41089058,7.29248274 9.60205078,7.87255506 9.60205078,8.57861328 L9.60205078,8.67529297 C9.60205078,9.38428089 9.411623,9.96435321 9.03076172,10.4155273 C8.64990044,10.8667015 8.13135094,11.0922852 7.47509766,11.0922852 C6.81884437,11.0922852 6.29956246,10.8659691 5.91723633,10.4133301 C5.5349102,9.9606911 5.34375,9.38135119 5.34375,8.67529297 L5.34375,8.57861328 Z M6.20947266,8.67529297 C6.20947266,9.17920174 6.31567277,9.5952132 6.52807617,9.92333984 C6.74047958,10.2514665 7.05615025,10.4155273 7.47509766,10.4155273 C7.88818566,10.4155273 8.20165909,10.2514665 8.41552734,9.92333984 C8.6293956,9.5952132 8.73632812,9.17920174 8.73632812,8.67529297 L8.73632812,8.57861328 C8.73632812,8.08056392 8.62866319,7.66601728 8.41333008,7.33496094 C8.19799697,7.00390459 7.8823263,6.83837891 7.46630859,6.83837891 C7.05322059,6.83837891 6.74047958,7.00390459 6.52807617,7.33496094 C6.31567277,7.66601728 6.20947266,8.08056392 6.20947266,8.57861328 L6.20947266,8.67529297 Z M11.878418,9.26855469 L11.9794922,9.84423828 L12.0058594,9.84423828 L12.1289062,9.26855469 L13.078125,6.24511719 L13.7724609,6.24511719 L14.7260742,9.26855469 L14.8623047,9.91015625 L14.8886719,9.91015625 L15.0161133,9.26855469 L15.7631836,6.24511719 L16.6245117,6.24511719 L15.2446289,11 L14.5458984,11 L13.6274414,8.10400391 L13.4296875,7.29541016 L13.4033203,7.29980469 L13.2143555,8.10400391 L12.309082,11 L11.6103516,11 L10.2304688,6.24511719 L11.0917969,6.24511719 L11.878418,9.26855469 Z M19.4458008,11.0922852 C18.7836881,11.0922852 18.257082,10.8718284 17.8659668,10.4309082 C17.4748516,9.98998803 17.2792969,9.41797227 17.2792969,8.71484375 L17.2792969,8.52148438 C17.2792969,7.84472318 17.4807109,7.28149639 17.8835449,6.83178711 C18.286379,6.38207783 18.7631808,6.15722656 19.3139648,6.15722656 C19.9555696,6.15722656 20.440428,6.350584 20.7685547,6.73730469 C21.0966813,7.12402537 21.2607422,7.63964521 21.2607422,8.28417969 L21.2607422,8.82470703 L18.1757812,8.82470703 L18.1625977,8.84667969 C18.1713868,9.30371322 18.2871083,9.67944189 18.5097656,9.97387695 C18.732423,10.268312 19.0444316,10.4155273 19.4458008,10.4155273 C19.738771,10.4155273 19.9958485,10.3737797 20.217041,10.2902832 C20.4382335,10.2067867 20.6293937,10.0917976 20.7905273,9.9453125 L21.1289062,10.5078125 C20.9589835,10.6748055 20.7348647,10.8139643 20.456543,10.925293 C20.1782213,11.0366217 19.8413106,11.0922852 19.4458008,11.0922852 Z M19.3139648,6.83837891 C19.0239243,6.83837891 18.7763682,6.96069214 18.5712891,7.20532227 C18.3662099,7.4499524 18.2402346,7.75683409 18.1933594,8.12597656 L18.2021484,8.14794922 L20.3950195,8.14794922 L20.3950195,8.03369141 C20.3950195,7.69384596 20.3042001,7.40966911 20.1225586,7.18115234 C19.9409171,6.95263558 19.6713885,6.83837891 19.3139648,6.83837891 Z M24.4819336,7.00976562 L24.0380859,6.98339844 C23.8095692,6.98339844 23.6169441,7.03759711 23.4602051,7.14599609 C23.303466,7.25439507 23.1826176,7.4067373 23.0976562,7.60302734 L23.0976562,11 L22.2319336,11 L22.2319336,6.24511719 L23.0053711,6.24511719 L23.0888672,6.93945312 C23.2236335,6.69335814 23.3898916,6.50146553 23.5876465,6.36376953 C23.7854014,6.22607353 24.0131823,6.15722656 24.2709961,6.15722656 C24.3354495,6.15722656 24.3969724,6.16235346 24.4555664,6.17260742 C24.5141604,6.18286138 24.5624998,6.1938476 24.6005859,6.20556641 L24.4819336,7.00976562 Z M27.206543,11.0922852 C26.5444303,11.0922852 26.0178242,10.8718284 25.626709,10.4309082 C25.2355937,9.98998803 25.0400391,9.41797227 25.0400391,8.71484375 L25.0400391,8.52148438 C25.0400391,7.84472318 25.2414531,7.28149639 25.6442871,6.83178711 C26.0471212,6.38207783 26.523923,6.15722656 27.074707,6.15722656 C27.7163118,6.15722656 28.2011702,6.350584 28.5292969,6.73730469 C28.8574235,7.12402537 29.0214844,7.63964521 29.0214844,8.28417969 L29.0214844,8.82470703 L25.9365234,8.82470703 L25.9233398,8.84667969 C25.932129,9.30371322 26.0478504,9.67944189 26.2705078,9.97387695 C26.4931652,10.268312 26.8051738,10.4155273 27.206543,10.4155273 C27.4995132,10.4155273 27.7565907,10.3737797 27.9777832,10.2902832 C28.1989757,10.2067867 28.3901359,10.0917976 28.5512695,9.9453125 L28.8896484,10.5078125 C28.7197257,10.6748055 28.4956069,10.8139643 28.2172852,10.925293 C27.9389635,11.0366217 27.6020528,11.0922852 27.206543,11.0922852 Z M27.074707,6.83837891 C26.7846665,6.83837891 26.5371104,6.96069214 26.3320312,7.20532227 C26.1269521,7.4499524 26.0009768,7.75683409 25.9541016,8.12597656 L25.9628906,8.14794922 L28.1557617,8.14794922 L28.1557617,8.03369141 C28.1557617,7.69384596 28.0649423,7.40966911 27.8833008,7.18115234 C27.7016592,6.95263558 27.4321307,6.83837891 27.074707,6.83837891 Z M29.7949219,8.71044922 C29.7949219,7.94579696 29.9582503,7.32910391 30.2849121,6.86035156 C30.6115739,6.39159922 31.069333,6.15722656 31.6582031,6.15722656 C31.9365248,6.15722656 32.1833485,6.20849558 32.3986816,6.31103516 C32.6140147,6.41357473 32.7978508,6.5629873 32.9501953,6.75927734 L32.9501953,4.14453125 L33.815918,4.14453125 L33.815918,11 L33.1083984,11 L33.0073242,10.4155273 C32.85205,10.6381847 32.6616222,10.8066401 32.4360352,10.9208984 C32.2104481,11.0351568 31.9482437,11.0922852 31.6494141,11.0922852 C31.069333,11.0922852 30.615236,10.8820822 30.2871094,10.4616699 C29.9589827,10.0412577 29.7949219,9.48828468 29.7949219,8.80273438 L29.7949219,8.71044922 Z M30.6606445,8.80273438 C30.6606445,9.28320553 30.7587881,9.66772317 30.9550781,9.95629883 C31.1513682,10.2448745 31.4560526,10.3891602 31.8691406,10.3891602 C32.1269544,10.3891602 32.3437491,10.330567 32.5195312,10.2133789 C32.6953134,10.0961908 32.8388666,9.93212996 32.9501953,9.72119141 L32.9501953,7.50195312 C32.8388666,7.30566308 32.694581,7.14965878 32.517334,7.03393555 C32.340087,6.91821231 32.1269544,6.86035156 31.8779297,6.86035156 C31.461912,6.86035156 31.1550303,7.03173657 30.9572754,7.37451172 C30.7595205,7.71728687 30.6606445,8.16259492 30.6606445,8.71044922 L30.6606445,8.80273438 Z M41.4052734,8.80273438 C41.4052734,9.48828468 41.2404802,10.0412577 40.9108887,10.4616699 C40.5812972,10.8820822 40.1279326,11.0922852 39.5507812,11.0922852 C39.2373031,11.0922852 38.9648449,11.0314947 38.7333984,10.9099121 C38.501952,10.7883295 38.3100594,10.6088879 38.1577148,10.371582 L38.0522461,11 L37.3447266,11 L37.3447266,4.14453125 L38.2104492,4.14453125 L38.2104492,6.80761719 C38.359864,6.59667863 38.5451649,6.43554743 38.7663574,6.32421875 C38.9875499,6.21289007 39.2460923,6.15722656 39.5419922,6.15722656 C40.1279326,6.15722656 40.5849593,6.39159922 40.9130859,6.86035156 C41.2412126,7.32910391 41.4052734,7.94579696 41.4052734,8.71044922 L41.4052734,8.80273438 Z M40.5395508,8.71044922 C40.5395508,8.16552462 40.43921,7.72094899 40.2385254,7.37670898 C40.0378408,7.03246898 39.7324239,6.86035156 39.3222656,6.86035156 C39.0556627,6.86035156 38.8308115,6.92553646 38.6477051,7.0559082 C38.4645987,7.18627995 38.3188482,7.36132703 38.2104492,7.58105469 L38.2104492,9.64208984 C38.3217779,9.87646602 38.4675284,10.0595697 38.6477051,10.1914062 C38.8278818,10.3232428 39.0556627,10.3891602 39.3310547,10.3891602 C39.7382833,10.3891602 40.0415029,10.2441421 40.2407227,9.95410156 C40.4399424,9.66406105 40.5395508,9.28027583 40.5395508,8.80273438 L40.5395508,8.71044922 Z M43.8662109,9.23779297 L44.0200195,9.83544922 L44.0463867,9.83544922 L45.215332,6.24511719 L46.1777344,6.24511719 L44.1782227,11.7294922 C44.0581049,12.0488297 43.8859874,12.3271473 43.6618652,12.5644531 C43.437743,12.801759 43.1352558,12.9204102 42.7543945,12.9204102 C42.6840817,12.9204102 42.5947271,12.9123536 42.4863281,12.8962402 C42.3779291,12.8801269 42.2944339,12.8647462 42.2358398,12.8500977 L42.3237305,12.1689453 C42.3061523,12.1660156 42.3581537,12.1689453 42.4797363,12.1777344 C42.601319,12.1865235 42.6782225,12.190918 42.7104492,12.190918 C42.8950205,12.190918 43.0458979,12.1088875 43.1630859,11.9448242 C43.280274,11.7807609 43.3784176,11.5991221 43.4575195,11.3999023 L43.6640625,10.9033203 L41.8974609,6.24511719 L42.8642578,6.24511719 L43.8662109,9.23779297 Z M47.1577148,11 L46.2919922,11 L46.2919922,10.1123047 L47.1577148,10.1123047 L47.1577148,11 Z M47.1577148,7.15039062 L46.2919922,7.15039062 L46.2919922,6.26269531 L47.1577148,6.26269531 L47.1577148,7.15039062 Z" fill="#000000" fill-rule="evenodd"/></svg>