<?xml version="1.0" encoding="UTF-8"?>
<svg width="20px" height="16px" viewBox="0 0 20 16" version="1.1" xmlns="http://www.w3.org/2000/svg" xmlns:xlink="http://www.w3.org/1999/xlink">
    <!-- Generator: Sketch 51.2 (57519) - http://www.bohemiancoding.com/sketch -->
    <title>settings-icon--highlight</title>
    <desc>Created with Sketch.</desc>
    <defs></defs>
    <g id="Player-UI" stroke="none" stroke-width="1" fill="none" fill-rule="evenodd">
        <g id="letzNav_player--settings" transform="translate(-765.000000, -526.000000)" fill="#000000" fill-rule="nonzero">
            <path d="M784.870461,533.64204 C784.670422,533.442248 784.370365,533.442248 784.170327,533.64204 L780.569639,537.238293 C779.969525,537.837669 779.036013,537.837669 778.435899,537.238293 L773.768341,532.576483 C773.501623,532.310094 773.334925,531.91051 773.334925,531.510926 C773.334925,531.111342 773.501623,530.745057 773.768341,530.445369 L777.369028,526.849116 C777.569067,526.649324 777.569067,526.349636 777.369028,526.149844 C777.16899,525.950052 776.868933,525.950052 776.668895,526.149844 L773.068207,529.746098 C772.601451,530.212279 772.334734,530.844953 772.334734,531.510926 C772.334734,531.810614 772.368073,532.077003 772.468093,532.343392 L765.133359,539.669095 C765.066679,539.735692 765,539.868887 765,540.002081 L765,541.50052 C765,541.766909 765.233378,542 765.500095,542 L775.00191,542 C775.135269,542 775.268627,541.933403 775.368646,541.866805 L778.702616,538.536941 C778.969334,538.636837 779.236052,538.670135 779.536109,538.670135 C780.202903,538.670135 780.836357,538.403746 781.303113,537.937565 L784.9038,534.341311 C785.037159,534.174818 785.037159,533.841831 784.870461,533.64204 Z" id="settings-icon--highlight"></path>
        </g>
    </g>
</svg>