<?xml version="1.0" encoding="UTF-8"?>
<svg width="20px" height="16px" viewBox="0 0 20 16" version="1.1" xmlns="http://www.w3.org/2000/svg" xmlns:xlink="http://www.w3.org/1999/xlink">
    <!-- Generator: Sketch 51.2 (57519) - http://www.bohemiancoding.com/sketch -->
    <title>settings-icon--highlight--dark</title>
    <desc>Created with Sketch.</desc>
    <defs></defs>
    <g id="Player-UI" stroke="none" stroke-width="1" fill="none" fill-rule="evenodd">
        <g id="letzNav_player--settings" transform="translate(-980.000000, -526.000000)" fill="#FFFFFF" fill-rule="nonzero">
            <g id="Group-5" transform="translate(960.000000, 260.000000)">
                <path d="M39.8704607,273.64204 C39.6704225,273.442248 39.3703652,273.442248 39.170327,273.64204 L35.5696395,277.238293 C34.9695249,277.837669 34.0360133,277.837669 33.4358987,277.238293 L28.7683409,272.576483 C28.5016233,272.310094 28.3349248,271.91051 28.3349248,271.510926 C28.3349248,271.111342 28.5016233,270.745057 28.7683409,270.445369 L32.3690284,266.849116 C32.5690666,266.649324 32.5690666,266.349636 32.3690284,266.149844 C32.1689902,265.950052 31.8689329,265.950052 31.6688947,266.149844 L28.0682072,269.746098 C27.6014514,270.212279 27.3347338,270.844953 27.3347338,271.510926 C27.3347338,271.810614 27.3680735,272.077003 27.4680926,272.343392 L20.1333588,279.669095 C20.0666794,279.735692 20,279.868887 20,280.002081 L20,281.50052 C20,281.766909 20.2333779,282 20.5000955,282 L30.0019097,282 C30.1352685,282 30.2686273,281.933403 30.3686464,281.866805 L33.7026163,278.536941 C33.9693339,278.636837 34.2360515,278.670135 34.5361088,278.670135 C35.2029028,278.670135 35.8363571,278.403746 36.3031129,277.937565 L39.9038004,274.341311 C40.0371592,274.174818 40.0371592,273.841831 39.8704607,273.64204 Z" id="settings-icon--highlight--dark"></path>
            </g>
        </g>
    </g>
</svg>