<?xml version="1.0" encoding="UTF-8"?>
<svg width="20px" height="14px" viewBox="0 0 20 14" version="1.1" xmlns="http://www.w3.org/2000/svg" xmlns:xlink="http://www.w3.org/1999/xlink">
    <!-- Generator: Sketch 51.2 (57519) - http://www.bohemiancoding.com/sketch -->
    <title>settings-icon--shortcuts</title>
    <desc>Created with Sketch.</desc>
    <defs></defs>
    <g id="Player-UI" stroke="none" stroke-width="1" fill="none" fill-rule="evenodd">
        <g id="letzNav_player--settings" transform="translate(-765.000000, -487.000000)" fill="#000000">
            <path d="M781.995305,491.976526 L781.995305,490.004695 L780.023474,490.004695 L780.023474,491.976526 L781.995305,491.976526 Z M781.995305,494.981221 L781.995305,493.00939 L780.023474,493.00939 L780.023474,494.981221 L781.995305,494.981221 Z M778.99061,491.976526 L778.99061,490.004695 L777.018779,490.004695 L777.018779,491.976526 L778.99061,491.976526 Z M778.99061,494.981221 L778.99061,493.00939 L777.018779,493.00939 L777.018779,494.981221 L778.99061,494.981221 Z M778.99061,499.018779 L778.99061,497 L771.00939,497 L771.00939,499.018779 L778.99061,499.018779 Z M769.976526,491.976526 L769.976526,490.004695 L768.004695,490.004695 L768.004695,491.976526 L769.976526,491.976526 Z M769.976526,494.981221 L769.976526,493.00939 L768.004695,493.00939 L768.004695,494.981221 L769.976526,494.981221 Z M771.00939,493.00939 L771.00939,494.981221 L772.981221,494.981221 L772.981221,493.00939 L771.00939,493.00939 Z M771.00939,490.004695 L771.00939,491.976526 L772.981221,491.976526 L772.981221,490.004695 L771.00939,490.004695 Z M774.014085,493.00939 L774.014085,494.981221 L775.985915,494.981221 L775.985915,493.00939 L774.014085,493.00939 Z M774.014085,490.004695 L774.014085,491.976526 L775.985915,491.976526 L775.985915,490.004695 L774.014085,490.004695 Z M783.028169,487 C783.560252,487 784.021909,487.195618 784.413147,487.586853 C784.804382,487.978091 785,488.439748 785,488.971831 L785,499.018779 C785,499.550863 784.804382,500.012518 784.413147,500.403756 C784.021909,500.794994 783.560252,500.99061 783.028169,500.99061 L766.971831,500.99061 C766.439747,500.99061 765.978093,500.794994 765.586854,500.403756 C765.195616,500.012518 765,499.550863 765,499.018779 L765,488.971831 C765,488.439748 765.195616,487.978091 765.586854,487.586853 C765.978093,487.195618 766.439747,487 766.971831,487 L783.028169,487 Z" id="settings-icon--shortcuts"></path>
        </g>
    </g>
</svg>