<?xml version="1.0" encoding="UTF-8"?>
<svg width="20px" height="14px" viewBox="0 0 20 14" version="1.1" xmlns="http://www.w3.org/2000/svg" xmlns:xlink="http://www.w3.org/1999/xlink">
    <!-- Generator: Sketch 51.2 (57519) - http://www.bohemiancoding.com/sketch -->
    <title>settings-icon--shortcuts--dark</title>
    <desc>Created with Sketch.</desc>
    <defs></defs>
    <g id="Player-UI" stroke="none" stroke-width="1" fill="none" fill-rule="evenodd">
        <g id="letzNav_player--settings" transform="translate(-980.000000, -487.000000)" fill="#FFFFFF">
            <g id="Group-5" transform="translate(960.000000, 260.000000)">
                <path d="M36.9953052,231.976526 L36.9953052,230.004695 L35.0234742,230.004695 L35.0234742,231.976526 L36.9953052,231.976526 Z M36.9953052,234.981221 L36.9953052,233.00939 L35.0234742,233.00939 L35.0234742,234.981221 L36.9953052,234.981221 Z M33.9906103,231.976526 L33.9906103,230.004695 L32.0187793,230.004695 L32.0187793,231.976526 L33.9906103,231.976526 Z M33.9906103,234.981221 L33.9906103,233.00939 L32.0187793,233.00939 L32.0187793,234.981221 L33.9906103,234.981221 Z M33.9906103,239.018779 L33.9906103,237 L26.0093897,237 L26.0093897,239.018779 L33.9906103,239.018779 Z M24.9765258,231.976526 L24.9765258,230.004695 L23.0046948,230.004695 L23.0046948,231.976526 L24.9765258,231.976526 Z M24.9765258,234.981221 L24.9765258,233.00939 L23.0046948,233.00939 L23.0046948,234.981221 L24.9765258,234.981221 Z M26.0093897,233.00939 L26.0093897,234.981221 L27.9812207,234.981221 L27.9812207,233.00939 L26.0093897,233.00939 Z M26.0093897,230.004695 L26.0093897,231.976526 L27.9812207,231.976526 L27.9812207,230.004695 L26.0093897,230.004695 Z M29.0140845,233.00939 L29.0140845,234.981221 L30.9859155,234.981221 L30.9859155,233.00939 L29.0140845,233.00939 Z M29.0140845,230.004695 L29.0140845,231.976526 L30.9859155,231.976526 L30.9859155,230.004695 L29.0140845,230.004695 Z M38.028169,227 C38.5602524,227 39.0219087,227.195618 39.413147,227.586853 C39.8043823,227.978091 40,228.439748 40,228.971831 L40,239.018779 C40,239.550863 39.8043823,240.012518 39.413147,240.403756 C39.0219087,240.794994 38.5602524,240.99061 38.028169,240.99061 L21.971831,240.99061 C21.439747,240.99061 20.9780928,240.794994 20.5868545,240.403756 C20.1956162,240.012518 20,239.550863 20,239.018779 L20,228.971831 C20,228.439748 20.1956162,227.978091 20.5868545,227.586853 C20.9780928,227.195618 21.439747,227 21.971831,227 L38.028169,227 Z" id="settings-icon--shortcuts--dark"></path>
            </g>
        </g>
    </g>
</svg>