<svg width="26" height="26" xmlns="http://www.w3.org/2000/svg"><g fill="none" fill-rule="evenodd"><path d="M13,5 C15.2034533,5 17.0876301,5.7824658 18.6525834,7.34741664 C20.2175342,8.91236988 21,10.7965467 21,13 C21,15.2034533 20.2175342,17.0876301 18.6525834,18.6525822 C17.0876301,20.2175352 15.2034533,21 13,21 C10.7965467,21 8.91236988,20.2175352 7.34741784,18.6525822 C5.78246484,17.0876301 5,15.2034533 5,13 C5,10.7965467 5.78246484,8.91236988 7.34741784,7.34741664 C8.91236988,5.7824658 10.7965467,5 13,5 Z" fill="#4A79E2"/><path fill="#FFFFFF" d="M14 10L14 8 12 8 12 10zM12 12H14V18H12z"/></g></svg>