<svg width="20" height="20" xmlns="http://www.w3.org/2000/svg"><path d="M13.4604057,14.1583772 L13,16 L7,16 L6.53958293,14.1583565 C6.22513119,12.9005495 5.60968621,11.7380143 4.74623802,10.7708454 C3.58207934,9.46684365 3,8.20989517 3,7 C3,3.13400675 6.13400675,0 10,0 C13.8659932,0 17,3.13400675 17,7 C17,8.20989824 16.4179177,9.46685002 15.2537531,10.7708554 C14.3903055,11.7380291 13.7748582,12.900567 13.4604057,14.1583772 Z M7,17 L13,17 L13,18 C13,19.1045695 12.1045695,20 11,20 L9,20 C7.8954305,20 7,19.1045695 7,18 L7,17 Z" fill="#FFFFFF" fill-rule="evenodd"/></svg>