<svg width="20" height="20" xmlns="http://www.w3.org/2000/svg"><path d="M10,20 C4.4771525,20 0,15.5228475 0,10 C0,4.4771525 4.4771525,0 10,0 C15.5228475,0 20,4.4771525 20,10 C20,15.5228475 15.5228475,20 10,20 Z M8.33333333,12.5 L10.8333333,12.5 C10.8333333,10.4166667 14.1666667,10.4166667 14.1666667,7.5 C14.1666667,5.2 12.3,3.33333333 9.9997299,3.33333333 C7.7,3.33333333 5.83333333,5.2 5.83333333,7.5 L8.33333333,7.5 C8.33333333,6.58333333 9.08333333,5.83333333 10,5.83333333 C10.9166667,5.83333333 11.6666667,6.58333333 11.6666667,7.5 C11.6666667,9.58333333 8.33333333,10 8.33333333,12.5 Z M10.8333333,16.6666667 L10.8333333,14.1666667 L8.33333333,14.1666667 L8.33333333,16.6666667 L10.8333333,16.6666667 Z" fill="#333333" fill-rule="evenodd"/></svg>