<svg width="15" height="15" xmlns="http://www.w3.org/2000/svg"><path d="M297,14 C297,15.1443299 296.679648,16.2138377 296.123734,17.1237341 L300,21 L298,23 L294.123734,19.1237341 C293.213838,19.6796483 292.14433,20 291,20 C287.686292,20 285,17.3137085 285,14 C285,10.6862915 287.686292,8 291,8 C294.313708,8 297,10.6862915 297,14 Z M291,18 C293.209139,18 295,16.209139 295,14 C295,11.790861 293.209139,10 291,10 C288.790861,10 287,11.790861 287,14 C287,16.209139 288.790861,18 291,18 Z" transform="translate(-285 -8)" fill="#FFFFFF" fill-rule="nonzero"/></svg>