<svg width="176" height="133" xmlns="http://www.w3.org/2000/svg"><g fill="#FFFFFF" fill-rule="evenodd"><g transform="translate(0 109)"><ellipse fill-rule="nonzero" opacity=".1" cx="88" cy="12" rx="88" ry="12"/><g opacity=".4"><path d="M83.3347676,3.04111623 L94.330523,3.04111895 C94.2462579,2.69822152 94.3342166,2.31700531 94.6418069,2.02589397 C94.8285163,1.8491873 95.0262658,1.76079326 95.2944599,1.68178389 C95.8820241,1.50868888 97.0642694,1.36481689 98.6646376,1.25796688 C102.818863,0.980418653 107.804601,0.933385641 112.051925,1.10075219 C117.875669,1.33023787 119.7193,1.5610164 119.7193,2.96656164 C119.7193,4.55474013 117.691743,4.74432913 109.790777,4.95359839 C106.842256,5.03169452 103.763922,5.05289024 101.18545,5.04297675 C101.000191,5.04226449 100.870985,5.04155309 100.8093,5.04109589 L94.9312513,5.04109589 C95.2715609,5.28964676 95.4081,5.60759868 95.4081,6.01973973 C95.4081,7.42530111 93.5643758,7.65606702 87.7399696,7.88554937 C83.4921161,8.05291535 78.5056128,8.00588283 74.3504381,7.72833452 C72.7508626,7.62146604 71.5691829,7.47758684 70.9818482,7.30447678 C70.7136603,7.22543151 70.5159091,7.13699194 70.3292098,6.96017988 C70.0218083,6.66905782 69.9339427,6.28797992 70.0181763,5.94520548 L22,5.94520548 C21.4800604,5.94520548 21.0528005,5.54839637 21.004538,5.04109589 L1,5.04109589 C0.44771525,5.04109589 0,4.59338064 0,4.04109589 C0,3.48881114 0.44771525,3.04109589 1,3.04109589 L23.0000854,3.04110133 C23.0074192,2.49512837 23.4522869,2.05479452 24,2.05479452 L58.547484,2.05481525 C58.4631743,1.7119691 58.5510444,1.33077579 58.8586209,1.03958945 C59.0453401,0.862820221 59.2430929,0.774412744 59.5113148,0.695385295 C60.0987471,0.52230738 61.2806709,0.378428895 62.8803315,0.271559066 C67.0342878,-0.00599648835 72.0201684,-0.0530197275 76.2675826,0.114384357 C82.0913174,0.343916241 83.9355,0.574812465 83.9355,1.98047397 C83.9355,2.43941709 83.7662137,2.78155315 83.3347676,3.04111623 Z" fill-rule="nonzero" transform="translate(26 8)"/><path opacity=".2" d="M17.0669669.40625L15.5 0 13.9330331.40625 11 .5 13.9330331.59375 15.5 1 17.0669669.59375 20 .5zM38.0669669 1.40625L36.5 1 34.9330331 1.40625 32 1.5 34.9330331 1.59375 36.5 2 38.0669669 1.59375 41 1.5zM8.06696686 6.40625L6.5 6 4.93303314 6.40625 2 6.5 4.93303314 6.59375 6.5 7 8.06696686 6.59375 11 6.5zM120.066967 5.40625L118.5 5 116.933033 5.40625 114 5.5 116.933033 5.59375 118.5 6 120.066967 5.59375 123 5.5z" transform="translate(26 8)"/></g></g><path d="M24,45 C23.4477153,45 23,44.5522847 23,44 C23,43.4477153 23.4477153,43 24,43 L65.1103665,43.0036247 C65.165023,43.0082911 65.2807412,43.0160361 65.4516277,43.0240224 C67.9116161,43.1389899 70.8700133,42.8911282 73.6737141,41.9877392 C78.8874952,40.307791 81.9355,36.8410178 81.9355,30.9291 C81.9355,21.8399351 71.3272487,16.7529924 63.5777461,23.0528893 C60.6806329,25.4077452 59.6488629,29.1063533 61.3534244,31.7637926 C61.651607,32.2286642 61.5164789,32.8472418 61.0516074,33.1454244 C60.5867358,33.443607 59.9681582,33.3084789 59.6699756,32.8436074 C57.3566742,29.2371326 58.6932821,24.445765 62.3162008,21.5009539 C71.3754126,14.1363393 83.9355,20.15924 83.9355,30.9291 C83.9355,37.7921822 80.2671798,41.9644965 74.2870859,43.8913608 C71.2170731,44.8805589 68.0366976,45.1470185 65.3582597,45.0218419 C65.1611322,45.0126291 65.019878,45.003175 65.0253,45 L24,45 Z M22,68 C21.4477153,68 21,67.5522847 21,67 C21,66.4477153 21.4477153,66 22,66 L76.4118327,66.0036248 C76.4914679,65.9968258 76.6327048,65.9873728 76.8298081,65.9781612 C79.5083942,65.8529776 82.6889934,66.1195116 85.7592305,67.1089411 C91.7396272,69.0362127 95.4081,73.2092766 95.4081,80.0735 C95.4081,90.8404736 82.8475017,96.8616254 73.7863384,89.4977767 C70.1640514,86.5533592 68.8279472,81.7621121 71.1399073,78.155255 C71.437945,77.6902905 72.0564805,77.5549696 72.521445,77.8530073 C72.9864095,78.151045 73.1217304,78.7695805 72.8236927,79.234545 C71.1198981,81.8926115 72.1513427,85.5913548 75.0477779,87.9457553 C82.7992357,94.2452293 93.4081,89.1596767 93.4081,80.0735 C93.4081,74.1603609 90.3598728,70.6928561 85.1457695,69.0125339 C82.3418751,68.1089373 79.3832842,67.8610075 76.9231761,67.9759806 C76.7523143,67.9839658 76.636614,67.9917096 76.4969,68 L22,68 Z M1,57 C0.44771525,57 0,56.5522847 0,56 C0,55.4477153 0.44771525,55 1,55 L100.894439,55.0036309 C103.696003,55.1391375 106.654157,54.8913241 109.45758,53.9879128 C114.671289,52.3077797 117.7193,48.8401864 117.7193,42.9265 C117.7193,33.8404171 107.111642,28.7547913 99.3618077,35.054383 C96.4638692,37.4084316 95.4319388,41.1071502 97.1361394,43.7652718 C97.434223,44.2302069 97.2989632,44.8487557 96.8340282,45.1468394 C96.3690931,45.444923 95.7505443,45.3096632 95.4524606,44.8447282 C93.1398132,41.2375834 94.4766584,36.4459675 98.1005354,33.5022257 C107.159796,26.1382437 119.7193,32.1596426 119.7193,42.9265 C119.7193,49.7912261 116.051061,53.9644266 110.07102,55.8915122 C107.001234,56.8807599 103.821048,57.1471737 101.142568,57.0218815 C101.011031,57.0157286 67.6301753,57.0084347 1,57 Z" fill-rule="nonzero" opacity=".6" transform="translate(26)"/><path d="M17.0669669,4.0625 L20,5 L17.0669669,5.9375 L15.5,10 L13.9330331,5.9375 L11,5 L13.9330331,4.0625 L15.5,0 L17.0669669,4.0625 Z M38.0669669,29.0625 L41,30 L38.0669669,30.9375 L36.5,35 L34.9330331,30.9375 L32,30 L34.9330331,29.0625 L36.5,25 L38.0669669,29.0625 Z M8.06696686,80.0625 L11,81 L8.06696686,81.9375 L6.5,86 L4.93303314,81.9375 L2,81 L4.93303314,80.0625 L6.5,76 L8.06696686,80.0625 Z M120.066967,72.0625 L123,73 L120.066967,73.9375 L118.5,78 L116.933033,73.9375 L114,73 L116.933033,72.0625 L118.5,68 L120.066967,72.0625 Z" opacity=".4" transform="translate(26)"/></g></svg>