<svg width="20" height="21" xmlns="http://www.w3.org/2000/svg"><path d="M30.0036265,131.207788 C29.6327661,130.840361 29.0764756,130.289221 28.3347548,129.554368 C28.7960234,129.046194 29.2025571,128.541935 29.5778267,128.018123 C29.9530932,127.494311 30.2931747,126.958779 30.5980803,126.411514 C30.9029858,125.864246 31.1805239,125.305261 31.4307036,124.734541 C31.6808833,124.16382 31.8919692,123.594176 32.0639644,123 L34.9957356,123 L34.9957356,121 L28,121 L28,119 L26,119 L26,121 L20,121 L20,123 L30.1641791,123 C29.8358179,123.969446 29.4058315,124.890898 28.8741989,125.789976 C28.3425693,126.689058 27.7171321,127.545125 26.9978663,128.358207 C26.5287831,127.842213 26.1027025,127.302772 25.7196155,126.739869 C25.3365284,126.176969 24.9886293,125.598437 24.6759062,125.004264 L22.6823013,125.004264 C23.0419357,125.817344 23.4719251,126.606959 23.9722814,127.373133 C24.4726378,128.139307 25.0355346,128.866378 25.6609808,129.554368 L20.5714286,134.573561 L22.0021322,136.004263 L26.9978663,131.008529 L29.1552161,133.149657 C29.9128624,132.045339 30.1956659,131.39805 30.0036265,131.207788 Z M35.4968017,126.997866 L33.5031968,126.997866 L28.9999985,139.006395 L30.9936034,139.006395 L32.119403,136.004263 L36.8805955,136.004263 L38.0063951,139.006395 L40,139.006395 L35.4968017,126.997866 Z M32.8933917,134.010661 L34.5117271,129.67164 L36.1300625,134.010661 L32.8933917,134.010661 Z" transform="translate(-20 -119)" fill="#FFFFFF" fill-rule="evenodd"/></svg>