<svg width="16" height="16" xmlns="http://www.w3.org/2000/svg"><path d="M5.20833333,5.16666667 C5.98611467,4.38888533 6.93054933,4 8.04166667,4 C9.152784,4 10.0972187,4.38888533 10.875,5.16666667 C11.6527813,5.944448 12.0416667,6.88888267 12.0416667,8 C12.0416667,9.11111733 11.6527813,10.055552 10.875,10.8333333 C10.0972187,11.6111147 9.152784,12 8.04166667,12 C6.93054933,12 5.98611467,11.6111147 5.20833333,10.8333333 C4.430552,10.055552 4.04166667,9.11111733 4.04166667,8 C4.04166667,6.88888267 4.430552,5.944448 5.20833333,5.16666667 Z M5.66666667,10.375 C6.333336,11.0138933 7.12499467,11.3333333 8.04166667,11.3333333 C8.95833867,11.3333333 9.74305333,11.0069467 10.3958347,10.3541653 C11.0486133,9.70138667 11.375,8.916672 11.375,8 C11.375,7.083328 11.0486133,6.29861333 10.3958347,5.64583467 C9.74305333,4.99305333 8.95833867,4.66666667 8.04166667,4.66666667 C7.12499467,4.66666667 6.34028,4.99305333 5.68749867,5.64583467 C5.03472,6.29861333 4.70833333,7.083328 4.70833333,8 C4.70833333,8.916672 5.02777333,9.70833067 5.66666667,10.375 Z M5.75,0.791666667 C5.33333067,0.930557333 4.91666933,1.09722133 4.5,1.29166667 C4.55555467,1.51389067 4.55555467,1.84722133 4.5,2.29166667 C4.41666667,2.847224 4.16666933,3.33333067 3.75,3.75 C3.22221867,4.27778133 2.58333707,4.54166667 1.83333333,4.54166667 C1.583332,4.54166667 1.4027784,4.52777867 1.29166667,4.5 C1.09722133,4.91666933 0.930556267,5.33333067 0.791666667,5.75 C1.01388987,5.88889067 1.24999867,6.12499733 1.5,6.45833333 C1.83333493,6.90277867 2,7.416664 2,8 C2,8.55555733 1.83333493,9.06944267 1.5,9.54166667 C1.24999867,9.87500267 1.01388987,10.1111093 0.791666667,10.25 C0.930556267,10.6666693 1.09722133,11.0833307 1.29166667,11.5 C1.4027784,11.4722213 1.583332,11.4583333 1.83333333,11.4583333 C2.58333707,11.4583333 3.22221867,11.7222187 3.75,12.25 C4.16666933,12.6666693 4.41666667,13.152776 4.5,13.7083333 C4.55555467,14.15278 4.55555467,14.4861099 4.5,14.7083333 C4.91666933,14.9027787 5.33333067,15.0694437 5.75,15.2083333 C5.88889067,14.9861101 6.12499733,14.7500013 6.45833333,14.5 C6.93055733,14.1666651 7.44444267,14 8,14 C8.583336,14 9.09722133,14.1666651 9.54166667,14.5 C9.87500267,14.7500013 10.1111093,14.9861101 10.25,15.2083333 C10.6666693,15.0694437 11.0833307,14.9027787 11.5,14.7083333 C11.4444453,14.4861099 11.4444453,14.15278 11.5,13.7083333 C11.5833333,13.152776 11.8333307,12.6666693 12.25,12.25 C12.7777813,11.7222187 13.416664,11.4583333 14.1666667,11.4583333 C14.4166667,11.4583333 14.5972213,11.4722213 14.7083333,11.5 C14.9027787,11.0833307 15.0694427,10.6666693 15.2083333,10.25 C14.9861093,10.1111093 14.75,9.87500267 14.5,9.54166667 C14.166664,9.06944267 14,8.55555733 14,8 C14,7.416664 14.166664,6.90277867 14.5,6.45833333 C14.75,6.12499733 14.9861093,5.88889067 15.2083333,5.75 C15.0694427,5.33333067 14.9027787,4.91666933 14.7083333,4.5 C14.5972213,4.52777867 14.4166667,4.54166667 14.1666667,4.54166667 C13.416664,4.54166667 12.7777813,4.27778133 12.25,3.75 C11.8333307,3.33333067 11.5833333,2.847224 11.5,2.29166667 C11.4444453,1.84722133 11.4444453,1.51389067 11.5,1.29166667 C11.0833307,1.09722133 10.6666693,0.930557333 10.25,0.791666667 C10.1111093,1.01389067 9.87500267,1.25 9.54166667,1.5 C9.09722133,1.833336 8.583336,2 8,2 C7.44444267,2 6.93055733,1.833336 6.45833333,1.5 C6.12499733,1.25 5.88889067,1.01389067 5.75,0.791666667 Z M9.91666667,0 C10.80556,0.222224 11.5972187,0.555554667 12.2916667,1 C11.902776,1.86111467 12.041664,2.62499733 12.7083333,3.29166667 C13.097224,3.68055733 13.5833307,3.875 14.1666667,3.875 C14.5000027,3.875 14.777776,3.81944533 15,3.70833333 C15.4444453,4.40278133 15.777776,5.19444 16,6.08333333 C15.1111067,6.41666933 14.6666667,7.055552 14.6666667,8 C14.6666667,8.944448 15.1111067,9.58333067 16,9.91666667 C15.777776,10.80556 15.4444453,11.5972187 15,12.2916667 C14.777776,12.1805547 14.5000027,12.125 14.1666667,12.125 C13.5833307,12.125 13.097224,12.3194427 12.7083333,12.7083333 C12.041664,13.3750035 11.902776,14.1388845 12.2916667,15 C11.5972187,15.4444467 10.80556,15.7777767 9.91666667,16 C9.58333067,15.1111067 8.944448,14.6666667 8,14.6666667 C7.055552,14.6666667 6.41666933,15.1111067 6.08333333,16 C5.19444,15.7777767 4.40278133,15.4444467 3.70833333,15 C4.097224,14.1388845 3.958336,13.3750035 3.29166667,12.7083333 C2.902776,12.3194427 2.4166696,12.125 1.83333333,12.125 C1.4999984,12.125 1.2222232,12.1805547 1,12.2916667 C0.555553333,11.5972187 0.222223333,10.80556 0,9.91666667 C0.888893333,9.58333067 1.33333333,8.944448 1.33333333,8 C1.33333333,7.055552 0.888893333,6.41666933 0,6.08333333 C0.222223333,5.19444 0.555553333,4.40278133 1,3.70833333 C1.2222232,3.81944533 1.4999984,3.875 1.83333333,3.875 C2.4166696,3.875 2.902776,3.68055733 3.29166667,3.29166667 C3.958336,2.62499733 4.097224,1.86111467 3.70833333,1 C4.40278133,0.555554667 5.19444,0.222224 6.08333333,0 C6.41666933,0.888893333 7.055552,1.33333333 8,1.33333333 C8.944448,1.33333333 9.58333067,0.888893333 9.91666667,0 Z" fill="#FFFFFF" fill-rule="evenodd"/></svg>