<svg width="20" height="21" xmlns="http://www.w3.org/2000/svg"><path d="M775.003626,391.207788 C774.632766,390.840361 774.076476,390.289221 773.334755,389.554368 C773.796023,389.046194 774.202557,388.541935 774.577827,388.018123 C774.953093,387.494311 775.293175,386.958779 775.59808,386.411514 C775.902986,385.864246 776.180524,385.305261 776.430704,384.734541 C776.680883,384.16382 776.891969,383.594176 777.063964,383 L779.995736,383 L779.995736,381 L773,381 L773,379 L771,379 L771,381 L765,381 L765,383 L775.164179,383 C774.835818,383.969446 774.405832,384.890898 773.874199,385.789976 C773.342569,386.689058 772.717132,387.545125 771.997866,388.358207 C771.528783,387.842213 771.102703,387.302772 770.719615,386.739869 C770.336528,386.176969 769.988629,385.598437 769.675906,385.004264 L767.682301,385.004264 C768.041936,385.817344 768.471925,386.606959 768.972281,387.373133 C769.472638,388.139307 770.035535,388.866378 770.660981,389.554368 L765.571429,394.573561 L767.002132,396.004263 L771.997866,391.008529 L774.155216,393.149657 C774.912862,392.045339 775.195666,391.39805 775.003626,391.207788 Z M780.496802,386.997866 L778.503197,386.997866 L773.999998,399.006395 L775.993603,399.006395 L777.119403,396.004263 L781.880596,396.004263 L783.006395,399.006395 L785,399.006395 L780.496802,386.997866 Z M777.893392,394.010661 L779.511727,389.67164 L781.130062,394.010661 L777.893392,394.010661 Z" transform="translate(-765 -379)" fill="#000000" fill-rule="evenodd"/></svg>