<svg width="20" height="20" xmlns="http://www.w3.org/2000/svg"><path d="M2.90178571,2.94642857 C4.86608,0.982134286 7.23212857,0 10,0 C12.7678714,0 15.1264771,0.974691429 17.0758914,2.92410857 C19.0253086,4.87352286 20,7.23212857 20,10 C20,12.7678714 19.0253086,15.1264771 17.0758914,17.0758914 C15.1264771,19.0253074 12.7678714,20 10,20 C7.23212857,20 4.87352286,19.0253074 2.92410857,17.0758914 C0.974692571,15.1264771 0,12.7678714 0,10 C0,7.23212857 0.967252286,4.88096286 2.90178571,2.94642857 Z M17.9464286,6.78571429 C17.4702371,5.65475714 16.8452429,4.70238571 16.0714286,3.92857143 C15.2976143,3.15475714 14.3303629,2.52976286 13.1696429,2.05357143 L12.3214286,4.77678571 C12.9464314,5.04464286 13.5119029,5.43154571 14.0178571,5.9375 C14.5833371,6.50298 14.9851171,7.06844857 15.2232143,7.63392857 L17.9464286,6.78571429 Z M6.96428571,13.0357143 C7.79762286,13.8690514 8.80951714,14.2857143 10,14.2857143 C11.1904829,14.2857143 12.2023771,13.8690514 13.0357143,13.0357143 C13.8690514,12.2023771 14.2857143,11.1904829 14.2857143,10 C14.2857143,8.80951714 13.8690514,7.79762286 13.0357143,6.96428571 C12.2023771,6.13094857 11.1904829,5.71428571 10,5.71428571 C8.80951714,5.71428571 7.79762286,6.13094857 6.96428571,6.96428571 C6.13094857,7.79762286 5.71428571,8.80951714 5.71428571,10 C5.71428571,11.1904829 6.13094857,12.2023771 6.96428571,13.0357143 Z M6.78571429,2.05357143 C5.65475714,2.52976286 4.70238571,3.15475714 3.92857143,3.92857143 C3.15475714,4.70238571 2.52976429,5.66963714 2.05357143,6.83035714 L4.77678571,7.67857143 C5.04464286,7.05356857 5.43154571,6.48809714 5.9375,5.98214286 C6.50298,5.41666286 7.06844857,5.01488286 7.63392857,4.77678571 L6.78571429,2.05357143 Z M2.05357143,13.2142857 C2.52976429,14.3452429 3.15475714,15.2976143 3.92857143,16.0714286 C4.70238571,16.8452429 5.66963714,17.4702357 6.83035714,17.9464286 L7.67857143,15.2232143 C7.05356857,14.9553571 6.48809714,14.5684543 5.98214286,14.0625 C5.41666286,13.49702 5.01488286,12.9315514 4.77678571,12.3660714 L2.05357143,13.2142857 Z M13.2142857,17.9464286 C14.3452429,17.4702357 15.2976143,16.8452429 16.0714286,16.0714286 C16.8452429,15.2976143 17.4702371,14.3303629 17.9464286,13.1696429 L15.2232143,12.3214286 C14.9553571,12.9464314 14.5684543,13.5119029 14.0625,14.0178571 C13.49702,14.5833371 12.9315514,14.9851171 12.3660714,15.2232143 L13.2142857,17.9464286 Z" fill="#FFFFFF" fill-rule="evenodd"/></svg>